<svg width="32" height="32" viewBox="0 0 32 32" fill="none" xmlns="http://www.w3.org/2000/svg">
<path d="M26 8H6C5.44772 8 5 8.44772 5 9V25C5 25.5523 5.44772 26 6 26H26C26.5523 26 27 25.5523 27 25V9C27 8.44772 26.5523 8 26 8Z" stroke="#3A182D" stroke-width="2" stroke-linecap="round" stroke-linejoin="round"/>
<path d="M11 8C11 6.67392 11.5268 5.40215 12.4645 4.46447C13.4021 3.52678 14.6739 3 16 3C17.3261 3 18.5979 3.52678 19.5355 4.46447C20.4732 5.40215 21 6.67392 21 8" stroke="#3A182D" stroke-width="2" stroke-linecap="round" stroke-linejoin="round"/>
<path fill-rule="evenodd" clip-rule="evenodd" d="M15.5 17.5V21H16.5V17.5H20V16.5H16.5V13H15.5V16.5H12V17.5H15.5Z" fill="#3A182D"/>
<path d="M15.5 21H15V21.5H15.5V21ZM15.5 17.5H16V17H15.5V17.5ZM16.5 21V21.5H17V21H16.5ZM16.5 17.5V17H16V17.5H16.5ZM20 17.5V18H20.5V17.5H20ZM20 16.5H20.5V16H20V16.5ZM16.5 16.5H16V17H16.5V16.5ZM16.5 13H17V12.5H16.5V13ZM15.5 13V12.5H15V13H15.5ZM15.5 16.5V17H16V16.5H15.5ZM12 16.5V16H11.5V16.5H12ZM12 17.5H11.5V18H12V17.5ZM16 21V17.5H15V21H16ZM16.5 20.5H15.5V21.5H16.5V20.5ZM16 17.5V21H17V17.5H16ZM20 17H16.5V18H20V17ZM19.5 16.5V17.5H20.5V16.5H19.5ZM16.5 17H20V16H16.5V17ZM16 13V16.5H17V13H16ZM15.5 13.5H16.5V12.5H15.5V13.5ZM16 16.5V13H15V16.5H16ZM12 17H15.5V16H12V17ZM12.5 17.5V16.5H11.5V17.5H12.5ZM15.5 17H12V18H15.5V17Z" fill="#3A182D"/>
</svg>
