<svg width="36" height="36" viewBox="0 0 36 36" fill="none" xmlns="http://www.w3.org/2000/svg">
<path d="M5.56532 26.5796C5.42267 26.3975 5.25445 26.2548 5.07032 26.1596C4.70514 25.9596 4.29553 25.9596 3.93034 26.1596C3.74621 26.2548 3.578 26.3975 3.43534 26.5796C3.29878 26.7698 3.19174 26.9941 3.12035 27.2396C3.00548 27.6038 2.9741 28.0052 3.03016 28.3932C3.08622 28.7812 3.22721 29.1383 3.43534 29.4195C3.58114 29.5962 3.74856 29.7383 3.93034 29.8395C4.10989 29.9453 4.30403 30 4.50033 30C4.69664 30 4.89078 29.9453 5.07032 29.8395C5.2521 29.7383 5.41952 29.5962 5.56532 29.4195C5.77345 29.1383 5.91445 28.7812 5.97051 28.3932C6.02657 28.0052 5.99518 27.6038 5.88032 27.2396C5.80892 26.9941 5.70188 26.7698 5.56532 26.5796ZM10.5003 9.99992H31.5C31.8978 9.99992 32.2794 9.78921 32.5607 9.41415C32.842 9.03908 33 8.53038 33 7.99996C33 7.46954 32.842 6.96084 32.5607 6.58578C32.2794 6.21071 31.8978 6 31.5 6H10.5003C10.1024 6 9.72092 6.21071 9.43961 6.58578C9.15831 6.96084 9.00028 7.46954 9.00028 7.99996C9.00028 8.53038 9.15831 9.03908 9.43961 9.41415C9.72092 9.78921 10.1024 9.99992 10.5003 9.99992ZM5.56532 16.5798C5.35439 16.3023 5.08653 16.1143 4.79555 16.0395C4.50457 15.9648 4.2035 16.0066 3.93034 16.1598C3.74856 16.2611 3.58114 16.4031 3.43534 16.5798C3.29878 16.77 3.19174 16.9943 3.12035 17.2398C3.04099 17.4792 3 17.738 3 17.9998C3 18.2615 3.04099 18.5204 3.12035 18.7598C3.19631 19.0021 3.30285 19.2253 3.43534 19.4197C3.58114 19.5964 3.74856 19.7385 3.93034 19.8397C4.10989 19.9455 4.30403 20.0002 4.50033 20.0002C4.69664 20.0002 4.89078 19.9455 5.07032 19.8397C5.2521 19.7385 5.41952 19.5964 5.56532 19.4197C5.69781 19.2253 5.80435 19.0021 5.88032 18.7598C5.95967 18.5204 6.00066 18.2615 6.00066 17.9998C6.00066 17.738 5.95967 17.4792 5.88032 17.2398C5.80892 16.9943 5.70188 16.77 5.56532 16.5798ZM31.5 15.9998H10.5003C10.1024 15.9998 9.72092 16.2105 9.43961 16.5856C9.15831 16.9606 9.00028 17.4693 9.00028 17.9998C9.00028 18.5302 9.15831 19.0389 9.43961 19.414C9.72092 19.789 10.1024 19.9997 10.5003 19.9997H31.5C31.8978 19.9997 32.2794 19.789 32.5607 19.414C32.842 19.0389 33 18.5302 33 17.9998C33 17.4693 32.842 16.9606 32.5607 16.5856C32.2794 16.2105 31.8978 15.9998 31.5 15.9998ZM5.56532 6.57999C5.42267 6.39791 5.25445 6.25518 5.07032 6.16C4.79716 6.00684 4.4961 5.965 4.20511 6.03974C3.91413 6.11449 3.64628 6.30248 3.43534 6.57999C3.30285 6.77439 3.19631 6.99761 3.12035 7.23998C3.04099 7.47937 3 7.73822 3 7.99996C3 8.2617 3.04099 8.52055 3.12035 8.75995C3.19631 9.00231 3.30285 9.22554 3.43534 9.41993C3.58114 9.59659 3.74856 9.73864 3.93034 9.83993C4.2035 9.99308 4.50457 10.0349 4.79555 9.96018C5.08653 9.88543 5.35439 9.69744 5.56532 9.41993C5.69781 9.22554 5.80435 9.00231 5.88032 8.75995C5.95967 8.52055 6.00066 8.2617 6.00066 7.99996C6.00066 7.73822 5.95967 7.47937 5.88032 7.23998C5.80435 6.99761 5.69781 6.77439 5.56532 6.57999ZM31.5 25.9996H10.5003C10.1024 25.9996 9.72092 26.2103 9.43961 26.5854C9.15831 26.9605 9.00028 27.4692 9.00028 27.9996C9.00028 28.53 9.15831 29.0387 9.43961 29.4138C9.72092 29.7888 10.1024 29.9995 10.5003 29.9995H31.5C31.8978 29.9995 32.2794 29.7888 32.5607 29.4138C32.842 29.0387 33 28.53 33 27.9996C33 27.4692 32.842 26.9605 32.5607 26.5854C32.2794 26.2103 31.8978 25.9996 31.5 25.9996Z" fill="#14420D"/>
</svg>
